<svg width="1024" height="180" viewBox="0 0 1024 180" fill="none" xmlns="http://www.w3.org/2000/svg">
<path fill-rule="evenodd" clip-rule="evenodd" d="M0.160034 142.4L54.57 0.280029H86.72L140.92 142.4H110.85L73.08 43.87C75.79 42.83 77.76 40.12 77.76 37.11C77.76 33.16 74.53 29.93 70.58 29.93C66.52 29.93 63.3 33.16 63.3 37.11C63.3 40.13 65.28 42.83 67.98 43.87L30.5301 142.4H0.160034Z" fill="#023220"/>
<path fill-rule="evenodd" clip-rule="evenodd" d="M151.23 142.4V37.11H178.59V49.0701C184.73 39.6001 194.3 34.8201 207.2 34.8201C219.16 34.8201 228.63 38.98 235.5 47.3C242.37 55.62 245.8 66.7601 245.8 80.7001V142.4H218.44V85.4901C218.44 77.7901 216.88 71.7601 213.76 67.4901C210.74 63.2201 206.37 61.1401 200.75 61.1401C194.2 61.1401 188.79 63.64 184.73 68.73C180.67 73.72 178.59 81.2101 178.59 90.9901V142.39H151.23V142.4Z" fill="#023220"/>
<path fill-rule="evenodd" clip-rule="evenodd" d="M274.41 179.23L288.97 142.4L248.61 37.11H278.57L305.31 105.36L331.94 37.11H362.12L302.4 179.23H274.41Z" fill="#023220"/>
<path fill-rule="evenodd" clip-rule="evenodd" d="M743.94 37.11H757.26H765.79L792.53 105.36L819.16 37.11H849.33L789.51 179.23H761.63L776.82 142.4L739.16 43.87C741.86 42.94 743.94 40.23 743.94 37.11ZM389.17 142.4V0.280029H418.2V113.37H464.81V142.4H389.17ZM502.67 110.35C507.35 115.76 513.39 118.36 520.98 118.36C528.57 118.36 534.71 115.76 539.29 110.35C543.87 105.04 546.16 98.18 546.16 89.75C546.16 81.32 543.87 74.46 539.29 69.05C534.71 63.74 528.57 61.14 520.98 61.14C513.39 61.14 507.35 63.74 502.67 69.05C498.09 74.46 495.8 81.33 495.8 89.75C495.81 98.18 498.1 105.05 502.67 110.35ZM515.26 144.69C502.05 144.69 490.91 139.28 481.86 128.46C472.81 117.64 468.23 104.74 468.23 89.76C468.23 74.67 472.81 61.77 481.86 50.95C490.91 40.23 502.04 34.82 515.26 34.82C521.61 34.82 527.33 36.17 532.43 38.98C537.42 41.79 541.38 45.12 543.98 48.86V37.1H571.34V142.39H543.98V130.53C541.38 134.38 537.43 137.71 532.43 140.52C527.33 143.33 521.61 144.69 515.26 144.69ZM961.7 142.4V37.11H989.06V53.96C990.83 48.76 993.95 44.39 998.53 40.95C1003.21 37.52 1008.31 35.85 1013.82 35.85C1017.36 35.85 1020.37 36.27 1023.08 37.1V66.34C1018.61 64.78 1014.55 64.05 1010.7 64.05C1004.15 64.05 998.94 66.55 994.99 71.54C991.04 76.53 989.06 83.3 989.06 92.04V142.4H961.7ZM897.4 58.13C891.16 58.13 885.96 59.9 881.69 63.33C877.53 66.76 874.82 71.45 873.47 77.58H920.39C918.93 70.92 916.02 66.03 911.75 62.91C907.39 59.69 902.6 58.13 897.4 58.13ZM898.03 144.69C866.09 144.69 845.7 120.55 845.7 89.55C845.7 58.75 866.82 34.82 898.24 34.82C933.61 34.82 952.03 64.58 950.36 96.52H872.43C872.95 103.07 875.55 108.59 880.23 113.06C884.91 117.43 891.26 119.61 899.37 119.61C904.36 119.61 908.73 118.57 912.48 116.59C916.33 114.51 919.03 111.7 920.6 108.06H949.21C942.87 131.27 921.43 144.69 898.03 144.69ZM670.8 142.4L655.61 86.11L640.11 142.4H612.96L579.77 37.11H609L627.94 104.53L645.42 37.11H666.44L685.17 104.53L708.27 37.11H729.49C729.49 40.23 731.47 42.94 734.28 43.87L696.51 142.4H670.8Z" fill="#023220"/>
<path fill-rule="evenodd" clip-rule="evenodd" d="M110.86 142.4C102.02 154.99 87.3501 163.1 70.7001 163.1C54.1601 163.1 39.49 154.99 30.54 142.4H110.86Z" fill="#023220"/>
<path fill-rule="evenodd" clip-rule="evenodd" d="M776.82 142.4C767.87 154.99 753.2 163.1 736.66 163.1C720.12 163.1 705.45 154.99 696.5 142.4H776.82Z" fill="#023220"/>
</svg>
