<svg width="129" height="129" viewBox="0 0 129 129" fill="none" xmlns="http://www.w3.org/2000/svg">
<g filter="url(#filter0_d_456_8946)">
<circle cx="64.5" cy="64.5" r="52.5" fill="#F9FAFA"/>
</g>
<g clip-path="url(#clip0_456_8946)">
<path d="M66.9624 59.5459L71.2457 53.4512L67.0178 42.2139L62.9398 49.1626L60.7787 47.802L57.1683 52.5399L62.3611 59.5459H66.9624Z" fill="#E88542"/>
<path d="M58.4938 68.6518H70.5192L73.0629 62.5146H55.9408L58.4938 68.6518Z" fill="#E88542"/>
<path d="M28.9637 54.7029L28.6133 56.0786L35.6751 57.8773L36.0255 56.5015L28.9637 54.7029Z" fill="#0C2B72"/>
<path d="M36.8148 54.0743L33.8774 52.8413C33.5539 52.7027 33.332 52.5012 33.2193 52.2258C33.1065 51.9522 33.1157 51.6583 33.2488 51.3459C33.3782 51.0372 33.5723 50.8394 33.8367 50.7414C34.1011 50.6434 34.3857 50.6638 34.6945 50.7931L37.6671 52.0428L38.2032 50.7617L35.3396 49.562C34.578 49.2441 33.9439 49.1572 33.43 49.3014C32.9161 49.4493 32.5371 49.819 32.2875 50.4123L32.2654 50.4678C32.099 50.8652 32.0435 51.235 32.1045 51.5751C32.1655 51.9152 32.3356 52.2239 32.6221 52.4994C32.7146 52.5899 32.8218 52.6787 32.9401 52.7619L31.7071 52.2443L31.2837 53.2591L36.2824 55.3554L36.8185 54.0743H36.8148Z" fill="#0C2B72"/>
<path d="M35.2472 48.1627C35.6391 48.416 36.0403 48.4844 36.4507 48.3642C36.8611 48.2422 37.2622 47.9464 37.6486 47.4787L37.9536 47.1035C38.1773 46.8207 38.3732 46.645 38.547 46.5767C38.7171 46.5101 38.8779 46.5249 39.0295 46.621C39.2033 46.7338 39.2865 46.9075 39.2791 47.1349C39.2717 47.366 39.1793 47.6192 38.9962 47.8984C38.7781 48.233 38.5526 48.4381 38.3252 48.5084C38.0941 48.5823 37.8981 48.5749 37.7318 48.4899L37.0515 49.5362C37.5303 49.8246 38.0183 49.88 38.5156 49.697C39.0092 49.514 39.4621 49.1129 39.8706 48.4862C40.1331 48.0851 40.2977 47.6969 40.3679 47.3216C40.4382 46.9464 40.416 46.6062 40.3032 46.2975C40.1905 45.9888 39.9816 45.7356 39.6802 45.5396C39.2717 45.2734 38.852 45.2161 38.4121 45.3622C37.9758 45.51 37.5525 45.8335 37.1476 46.3308L36.8426 46.7061C36.6503 46.9334 36.4821 47.0758 36.3324 47.1331C36.1845 47.1904 36.0366 47.1719 35.8924 47.0795C35.7408 46.9796 35.6613 46.8354 35.6539 46.6395C35.6484 46.4436 35.7223 46.2217 35.8813 45.9777C36.0588 45.7041 36.251 45.5322 36.4562 45.4601C36.6614 45.3862 36.8481 45.3954 37.0108 45.4897L37.6911 44.4434C37.2068 44.1513 36.728 44.0959 36.2603 44.2826C35.7889 44.4693 35.3711 44.8409 35.0087 45.3973C34.7777 45.754 34.6242 46.1071 34.5521 46.4528C34.4819 46.8003 34.5004 47.1201 34.6094 47.4159C34.7222 47.708 34.9329 47.9575 35.2454 48.1609L35.2472 48.1627Z" fill="#0C2B72"/>
<path d="M36.9239 42.8959L37.6874 43.5706L38.2586 42.9255L40.0278 44.4986C40.4234 44.848 40.7894 45.0643 41.1259 45.1493C41.4623 45.2362 41.7877 45.2011 42.0982 45.0439C42.4088 44.8868 42.7305 44.6243 43.0614 44.2509L43.579 43.6668L42.6898 42.8793L42.1278 43.5152C41.9504 43.7148 41.7618 43.8202 41.5603 43.8331C41.3588 43.8461 41.1591 43.7629 40.9558 43.5854L39.1201 41.955L40.2274 40.7035L39.4639 40.0288L38.3566 41.2803L37.2142 40.2654L36.3564 41.2322L37.4988 42.2471L36.9239 42.8959Z" fill="#0C2B72"/>
<path d="M45.0616 42.0882L45.3833 41.8183L45.5145 42.0975C45.6014 42.2749 45.6495 42.4339 45.6532 42.5725C45.6569 42.713 45.6236 42.8424 45.557 42.9644C45.4905 43.0864 45.3796 43.2084 45.2335 43.3341L44.4534 43.9885L45.2169 44.8999L45.8972 44.3287C46.2373 44.0421 46.4906 43.7612 46.6551 43.4839C46.8197 43.2084 46.8954 42.9164 46.8899 42.604C46.8807 42.2934 46.7882 41.9496 46.6071 41.5706L44.0486 36.0176L43.03 36.8716L44.8915 40.7942L44.7307 40.9292L41.0168 38.5575L39.9446 39.4559L44.703 42.3895L45.0635 42.0882H45.0616Z" fill="#0C2B72"/>
<path d="M44.5902 35.683L45.1189 36.5536L45.8565 36.1044L47.0803 38.1305C47.3539 38.5797 47.6386 38.8939 47.9344 39.0769C48.2339 39.2599 48.5518 39.3209 48.8938 39.2636C49.2377 39.2063 49.6222 39.0492 50.0492 38.7885L50.7129 38.3837L50.0973 37.3689L49.3726 37.8088C49.1452 37.9475 48.9326 37.9918 48.7367 37.9438C48.5407 37.8957 48.3744 37.757 48.2357 37.5297L46.9639 35.4279L48.3928 34.5572L47.8623 33.6865L46.4333 34.5535L45.6439 33.2466L44.5366 33.9213L45.326 35.2282L44.5884 35.6848L44.5902 35.683Z" fill="#0C2B72"/>
<path d="M53.582 31.189L52.2953 31.7084L53.4951 34.6772C53.6263 35.0044 53.6393 35.3038 53.5265 35.57C53.4137 35.8362 53.2122 36.0322 52.9165 36.1505C52.6207 36.2688 52.3489 36.2762 52.1012 36.1634C51.8535 36.0507 51.6686 35.8418 51.5466 35.5312L50.3228 32.5033L49.0362 33.0227L50.2138 35.9379C50.5188 36.6884 50.907 37.1931 51.3784 37.4463C51.8498 37.6996 52.3767 37.7088 52.9571 37.4759L53.0126 37.4537C53.4008 37.2966 53.6892 37.0785 53.8796 36.8012C54.07 36.5257 54.1587 36.1875 54.1532 35.7974C54.1495 35.6883 54.1402 35.5756 54.1236 35.4573L54.5987 36.6293L55.6173 36.2189L53.582 31.189Z" fill="#0C2B72"/>
<path d="M54.9629 31.8566L55.804 31.6662L56.3216 33.9751C56.4363 34.4889 56.6063 34.8771 56.8319 35.1433C57.0574 35.4095 57.3384 35.5704 57.6822 35.6277C58.0261 35.6813 58.4402 35.6572 58.9282 35.5482L59.6899 35.3781L59.4273 34.2191L58.5992 34.4058C58.3385 34.4631 58.1241 34.4409 57.954 34.3318C57.7839 34.2228 57.6674 34.0398 57.6101 33.7791L57.074 31.3815L58.7045 31.0118L58.479 30.0191L56.8485 30.3889L56.5139 28.8989L55.2494 29.1855L55.584 30.6754L54.7392 30.8639L54.9647 31.8566H54.9629Z" fill="#0C2B72"/>
<path d="M70.5931 28.0038L68.9145 34.0172L68.6483 34.0005L67.7148 28.0944L66.4485 28.0112V28.0149L66.1786 27.9946L64.6571 33.738L64.3909 33.7214L63.3391 27.5287L61.8749 27.4326L63.2522 34.8268L65.4631 34.971L66.8015 30.1944L67.5946 35.1115L69.8462 35.2594L71.9777 28.0944L70.5931 28.0038Z" fill="#0C2B72"/>
<path d="M73.159 33.4074C73.2644 33.0932 73.416 32.8325 73.6175 32.6273C73.819 32.4258 74.0537 32.2872 74.3273 32.2188C74.5972 32.1522 74.8893 32.167 75.198 32.2706C75.5068 32.3741 75.7508 32.5331 75.9264 32.7493C76.1039 32.9675 76.2093 33.2152 76.2481 33.498C76.2832 33.7808 76.2518 34.0784 76.1446 34.3945C76.041 34.7032 75.895 34.962 75.699 35.1691C75.5031 35.3743 75.272 35.5129 75.0058 35.5795C74.7359 35.646 74.4438 35.6275 74.1203 35.5222C73.7986 35.4168 73.5491 35.2523 73.3753 35.0378C73.2015 34.8234 73.0962 34.572 73.061 34.2892C73.0259 34.0137 73.0573 33.718 73.1609 33.4093L73.159 33.4074ZM71.8077 33.0728C71.6949 33.413 71.6468 33.7623 71.6672 34.1191C71.6856 34.4759 71.7725 34.8197 71.9297 35.1506C72.0868 35.4815 72.3142 35.7736 72.6137 36.0361C72.9113 36.2967 73.2903 36.5019 73.7432 36.6516C74.1924 36.7995 74.6139 36.8605 75.0076 36.8309C75.4032 36.8014 75.7619 36.7015 76.0854 36.5333C76.4089 36.3632 76.6825 36.1414 76.9099 35.866C77.1373 35.5906 77.3073 35.2818 77.4201 34.9417L77.4867 34.7421C77.605 34.389 77.653 34.0322 77.6309 33.6699C77.6124 33.3076 77.5181 32.9638 77.361 32.6329C77.2001 32.302 76.969 32.0099 76.6714 31.7493C76.3701 31.4923 76.0041 31.2908 75.5678 31.1466C75.1315 31.0024 74.7174 30.9451 74.3218 30.9692C73.9262 30.9932 73.5676 31.0949 73.2403 31.2612C72.9131 31.4313 72.634 31.6531 72.3992 31.9286C72.1644 32.204 71.9888 32.5201 71.8687 32.8713L71.804 33.071L71.8077 33.0728Z" fill="#0C2B72"/>
<path d="M77.2389 37.8513L78.4775 38.4798L81.7755 31.9784L80.5388 31.3499L79.9324 31.0449L79.4647 31.9692L80.0674 32.2779L77.2389 37.8513Z" fill="#0C2B72"/>
<path d="M80.5905 39.722L82.4244 37.1155C82.6259 36.8272 82.8736 36.6571 83.1657 36.6053C83.4577 36.5536 83.7443 36.6275 84.0197 36.8198C84.2933 37.012 84.4468 37.2468 84.4819 37.5222C84.517 37.8013 84.4394 38.0749 84.2508 38.3467L82.3948 40.9845L83.5317 41.7831L85.3193 39.2432C85.7944 38.5685 86.0163 37.9659 85.9811 37.4335C85.9497 36.9011 85.6669 36.4519 85.14 36.0785L85.0919 36.0434C84.7389 35.792 84.3895 35.6607 84.0456 35.6478C83.7018 35.6348 83.3616 35.7347 83.0307 35.9528C82.9216 36.023 82.8126 36.1099 82.7072 36.206L83.4781 35.1117L82.5796 34.4795L79.4628 38.9123L80.5924 39.7183L80.5905 39.722Z" fill="#0C2B72"/>
<path d="M86.288 41.9142C86.3878 41.648 86.5579 41.404 86.7945 41.1785C87.0349 40.9511 87.2918 40.794 87.5654 40.7071C87.839 40.6239 88.1108 40.6147 88.3807 40.6812C88.6543 40.7478 88.9001 40.903 89.1257 41.1397C89.3493 41.3781 89.488 41.6314 89.5435 41.9068C89.5989 42.1822 89.573 42.4521 89.4732 42.7165C89.3697 42.9827 89.1996 43.2304 88.9593 43.4577C88.7227 43.6833 88.4712 43.8404 88.2013 43.9291C87.9314 44.0197 87.6652 44.0326 87.3953 43.9642C87.1254 43.8977 86.8759 43.7424 86.6411 43.4947C86.4063 43.247 86.2658 42.9901 86.2141 42.7183C86.1623 42.4447 86.1882 42.1767 86.288 41.9124V41.9142ZM85.7611 40.245C85.5005 40.4927 85.2953 40.7773 85.1419 41.1027C84.9903 41.4262 84.9034 41.77 84.8886 42.1323C84.872 42.4983 84.933 42.8644 85.0753 43.2359C85.2158 43.6056 85.4506 43.9642 85.7815 44.3155C86.105 44.6593 86.4525 44.9089 86.8149 45.0697C87.1772 45.2305 87.5395 45.31 87.9074 45.3137C88.2734 45.3174 88.6191 45.249 88.95 45.114C89.2809 44.9791 89.5767 44.7868 89.8355 44.5391L89.9871 44.395C90.257 44.138 90.4678 43.8459 90.6194 43.5187C90.7709 43.1915 90.8541 42.844 90.8689 42.4762C90.8819 42.1101 90.8172 41.7404 90.6767 41.3726C90.5325 41.0029 90.3051 40.6535 89.9871 40.3189C89.6729 39.9843 89.3327 39.7385 88.9722 39.5739C88.6117 39.4094 88.2457 39.3262 87.8815 39.3244C87.5155 39.3207 87.1624 39.3817 86.826 39.5166C86.4895 39.6479 86.1845 39.8438 85.9146 40.1008L85.763 40.245H85.7611Z" fill="#0C2B72"/>
<path d="M97.0027 45.3619L96.2226 44.1548L94.019 44.5245L94.6642 45.519L97.0027 45.3619Z" fill="#0C2B72"/>
<path d="M90.9817 46.9571L91.1998 47.3878C91.3662 47.7095 91.4475 47.959 91.4401 48.1421C91.4309 48.3251 91.3533 48.4655 91.2035 48.5617C91.0298 48.6744 90.8412 48.68 90.6323 48.5802C90.4234 48.4803 90.2311 48.2918 90.0518 48.0127C89.8337 47.6781 89.7413 47.3897 89.7653 47.1494C89.7912 46.9091 89.8781 46.7316 90.0259 46.6133L89.3493 45.567C88.8909 45.8887 88.6432 46.312 88.608 46.8388C88.5729 47.3657 88.7596 47.9406 89.1626 48.5654C89.4233 48.9665 89.7117 49.2752 90.0259 49.4933C90.3402 49.7078 90.6619 49.8279 90.9891 49.8501C91.3163 49.8723 91.6306 49.7854 91.9337 49.5895C92.3423 49.327 92.566 48.9628 92.6085 48.5007C92.651 48.0422 92.5253 47.5246 92.2369 46.9534L92.0188 46.5227C91.8875 46.2602 91.8265 46.0476 91.8321 45.8868C91.8376 45.726 91.9153 45.6021 92.0594 45.5042C92.211 45.408 92.3774 45.3951 92.5567 45.4653C92.7397 45.5393 92.9098 45.6964 93.0669 45.9441C93.2444 46.2177 93.3239 46.4636 93.3073 46.6817C93.2888 46.8998 93.2074 47.0643 93.0577 47.1753L93.7343 48.2215C94.1965 47.898 94.4405 47.484 94.4627 46.9756C94.4849 46.4691 94.3111 45.9386 93.9524 45.3803C93.7214 45.0235 93.4607 44.7407 93.1723 44.5355C92.8839 44.3303 92.5808 44.2176 92.2702 44.1991C91.9559 44.1806 91.6435 44.273 91.3292 44.4745C90.9373 44.7278 90.7136 45.0679 90.6582 45.4931C90.5972 45.9238 90.7062 46.4081 90.9817 46.9534V46.9571Z" fill="#0C2B72"/>
<path d="M96.2448 49.9408C95.9656 49.6876 95.6606 49.5046 95.3297 49.3918C94.9951 49.2791 94.6512 49.2347 94.2981 49.2606C93.9414 49.2828 93.5975 49.3659 93.2611 49.5101L93.0873 49.5841C92.7693 49.719 92.4772 49.902 92.2166 50.1368C91.9541 50.3716 91.7452 50.647 91.5899 50.9612C91.4365 51.2755 91.3496 51.623 91.3366 52.002C91.3237 52.3809 91.4069 52.7858 91.5936 53.222C91.7803 53.6657 92.0336 54.0206 92.3515 54.2942C92.6695 54.5678 93.0263 54.7471 93.4182 54.8303C93.8101 54.9135 94.215 54.882 94.6309 54.7341L94.104 53.4919C93.9155 53.5437 93.7325 53.5492 93.5494 53.5141C93.3701 53.479 93.2019 53.3995 93.0577 53.2738C92.9098 53.1481 92.7915 52.9762 92.6972 52.7543C92.5715 52.4586 92.5364 52.1924 92.5937 51.9484C92.6492 51.7044 92.7767 51.4862 92.9782 51.2958C93.1797 51.1073 93.4274 50.9483 93.7232 50.8245C94.0282 50.6951 94.3203 50.6248 94.5958 50.6193C94.8712 50.61 95.1152 50.671 95.3315 50.8023C95.546 50.9317 95.7142 51.1387 95.8325 51.4178C95.9712 51.7413 95.9933 52.0353 95.8991 52.2941C95.8066 52.5547 95.6384 52.7525 95.3944 52.8948L95.9212 54.1371C96.3095 53.9448 96.6108 53.6805 96.8234 53.3477C97.036 53.0131 97.1543 52.6416 97.1802 52.2275C97.2023 51.8134 97.1229 51.3864 96.9398 50.952C96.7439 50.5324 96.5184 50.1941 96.2392 49.9408H96.2448Z" fill="#0C2B72"/>
<path d="M96.9435 54.5216L97.1358 55.2536L92.8987 56.3775L93.2555 57.7177L98.4982 56.3276L98.1415 54.9874V54.9892L97.9455 54.2554L96.9435 54.5216Z" fill="#0C2B72"/>
<path d="M100.356 54.9284C100.286 54.6659 100.166 54.4885 99.9993 54.3997C99.8293 54.3092 99.6388 54.2944 99.4281 54.348C99.2155 54.4053 99.0565 54.5143 98.953 54.6752C98.8476 54.8397 98.831 55.0504 98.9012 55.3148C98.9715 55.5791 99.0917 55.7547 99.2617 55.8379C99.4318 55.9248 99.6241 55.9377 99.8367 55.8823C100.049 55.825 100.206 55.7178 100.308 55.5606C100.408 55.4035 100.426 55.1909 100.356 54.9284Z" fill="#0C2B72"/>
<path d="M32.6924 76.1992L33.8404 75.8591L33.0677 73.2582L34.846 72.7351L35.6521 75.4746L36.8019 75.1363L35.9404 72.2064L35.5966 71.0381L28.6051 73.0881L29.0025 74.4505L31.9178 73.5965L32.6924 76.1992Z" fill="#0C2B72"/>
<path d="M34.7629 78.704C35.0975 78.8334 35.36 79.1089 35.5559 79.5322L35.7131 79.876L36.8112 79.3714L36.728 79.1921C36.4581 78.6042 36.0735 78.2456 35.5689 78.1107C35.1899 78.009 34.7499 78.0367 34.2563 78.2012L35.8554 77.4655L35.3969 76.4673L30.4722 78.7336L31.0527 79.9943L33.6204 78.8131C34.0474 78.6116 34.4301 78.5746 34.7629 78.704Z" fill="#0C2B72"/>
<path d="M36.9332 81.9263C37.1679 82.0261 37.3694 82.2017 37.5395 82.4587C37.7096 82.7119 37.7928 82.9633 37.7965 83.2073C37.7965 83.4513 37.7225 83.6824 37.5746 83.9005C37.4878 84.0262 37.3824 84.1445 37.2511 84.261L35.7426 81.991C35.8868 81.93 36.0255 81.8856 36.1623 81.856C36.4414 81.8043 36.6984 81.8265 36.9332 81.9263ZM35.2823 85.0282C35.0513 84.9246 34.8424 84.7324 34.6538 84.4496C34.4652 84.1667 34.3746 83.8913 34.3783 83.627C34.382 83.3608 34.4615 83.1094 34.6224 82.8764C34.7277 82.723 34.8627 82.5751 35.0235 82.4402L37.2807 85.8341L37.6948 85.5587C38.0923 85.2925 38.4102 84.9616 38.6487 84.566C38.8835 84.1686 38.9981 83.7342 38.9944 83.2628C38.9888 82.7914 38.8243 82.3126 38.5008 81.8246C38.2531 81.4512 37.9702 81.1702 37.6541 80.9743C37.3362 80.7783 37.0016 80.6563 36.6596 80.612C36.312 80.5676 35.97 80.5861 35.6225 80.6767C35.2786 80.7672 34.9551 80.9114 34.6556 81.1092L34.4985 81.2146C34.2101 81.4068 33.9587 81.6416 33.748 81.9244C33.5354 82.2073 33.3782 82.516 33.2821 82.858C33.186 83.1981 33.1656 83.5586 33.2266 83.9375C33.2877 84.3165 33.4448 84.701 33.7054 85.0892C33.9532 85.4607 34.236 85.7509 34.5558 85.9561C34.8775 86.1613 35.2176 86.2833 35.5726 86.3147C35.9294 86.3462 36.288 86.2963 36.6411 86.1539L35.9349 85.091C35.7297 85.1483 35.5153 85.1261 35.2842 85.0263L35.2823 85.0282Z" fill="#0C2B72"/>
<path d="M41.6361 88.5533C41.5751 88.692 41.4919 88.8288 41.3865 88.9674L39.4861 87.0154C39.6155 86.9285 39.7468 86.8582 39.8743 86.8065C40.1405 86.7011 40.3975 86.6771 40.6452 86.7325C40.8966 86.788 41.1277 86.9248 41.3385 87.1429C41.5492 87.361 41.6823 87.5921 41.7267 87.8306C41.7747 88.069 41.7452 88.3093 41.6361 88.5533ZM42.9135 87.6679C42.8211 87.2058 42.5696 86.7658 42.1629 86.3462C41.8524 86.0245 41.5215 85.8009 41.1702 85.6659C40.8208 85.531 40.4733 85.4737 40.1239 85.4921C39.7745 85.5106 39.4399 85.5957 39.1182 85.7491C38.7966 85.9007 38.5045 86.1022 38.2475 86.3536L38.1126 86.4848C37.8649 86.7251 37.6634 87.0043 37.5062 87.3185C37.3491 87.6328 37.253 87.9674 37.2197 88.3204C37.1883 88.6735 37.2363 89.0303 37.3639 89.3926C37.4933 89.7549 37.7207 90.1024 38.0442 90.4352C38.3548 90.7531 38.6894 90.9879 39.0425 91.1284C39.3955 91.2726 39.7523 91.328 40.111 91.2948C40.4714 91.2633 40.8116 91.1432 41.1314 90.9417L40.2385 90.0266C40.0518 90.1228 39.8374 90.1413 39.5933 90.084C39.3456 90.0266 39.1053 89.8751 38.8687 89.6348C38.6321 89.3907 38.4897 89.1412 38.4453 88.8768C38.401 88.6144 38.4324 88.3537 38.547 88.0931C38.6247 87.9193 38.7263 87.7529 38.8576 87.5921L41.7026 90.5091L42.0594 90.1597C42.4033 89.8252 42.6528 89.4407 42.8137 89.0081C42.9671 88.5774 43.0041 88.1282 42.9098 87.666L42.9135 87.6679Z" fill="#0C2B72"/>
<path d="M46.461 93.2486L46.2355 93.5795C46.0562 93.842 45.8399 94.0324 45.5959 94.1507C45.3481 94.269 45.0986 94.3152 44.8416 94.2893C44.5847 94.2634 44.3443 94.1747 44.1188 94.0194C43.8785 93.853 43.701 93.646 43.5919 93.4038C43.4829 93.1598 43.444 92.8936 43.4792 92.6071C43.5143 92.3206 43.6308 92.0359 43.8267 91.7494C44.0227 91.4647 44.2464 91.2521 44.5015 91.1098C44.7566 90.9675 45.0191 90.9046 45.289 90.9175C45.5589 90.9305 45.8177 91.0211 46.0654 91.1911C46.2836 91.3427 46.4536 91.5276 46.5756 91.7531C46.6976 91.9768 46.7531 92.2189 46.7457 92.4759C46.7365 92.7254 46.6422 92.9861 46.4592 93.2504L46.461 93.2486ZM48.8846 89.6439L47.3909 91.8233C47.4038 91.4832 47.3428 91.1689 47.2042 90.8861C47.0396 90.5515 46.7827 90.2669 46.4333 90.0265C46.1153 89.8084 45.7844 89.6698 45.4443 89.6088C45.1041 89.5478 44.7677 89.557 44.4423 89.6402C44.1188 89.7234 43.8027 89.8676 43.5106 90.0802C43.2185 90.2927 42.9616 90.5552 42.7434 90.8732L42.6251 91.0469C42.4033 91.3704 42.2498 91.7087 42.1629 92.0544C42.0761 92.4038 42.0576 92.7476 42.1093 93.0877C42.1574 93.4279 42.2757 93.7458 42.4587 94.0416C42.6454 94.3374 42.8913 94.5943 43.2037 94.8087C43.5531 95.0491 43.9228 95.1914 44.3018 95.2302C44.6845 95.269 45.0616 95.1951 45.4406 95.0047C45.5071 94.9733 45.5718 94.9345 45.6402 94.8919L45.0006 95.8236L45.9064 96.4429L50.0289 90.4295L48.8827 89.642L48.8846 89.6439Z" fill="#0C2B72"/>
<path d="M52.8684 96.6519C52.7427 96.9532 52.5763 97.2009 52.3674 97.3895C52.1585 97.578 51.9182 97.7 51.6446 97.7499C51.371 97.798 51.0789 97.7592 50.7646 97.6279C50.4504 97.4967 50.2156 97.3192 50.0585 97.0918C49.9013 96.8645 49.8144 96.6075 49.7978 96.3247C49.7812 96.0419 49.8366 95.7461 49.9605 95.4485C50.0899 95.1398 50.26 94.8921 50.4744 94.7035C50.6888 94.515 50.9329 94.3985 51.2102 94.3504C51.4856 94.3024 51.7758 94.3412 52.0772 94.4669C52.3785 94.5926 52.6096 94.7682 52.7704 94.9956C52.9312 95.223 53.02 95.4799 53.0329 95.7664C53.0496 96.0493 52.9904 96.345 52.8665 96.6519H52.8684ZM53.5912 94.0491C53.3121 93.77 52.959 93.5426 52.5356 93.3689C52.1123 93.1933 51.7001 93.1027 51.3063 93.1027C50.9107 93.099 50.5465 93.1729 50.2045 93.3171C49.8681 93.4613 49.5723 93.6646 49.3153 93.9197C49.0621 94.1767 48.8624 94.478 48.7182 94.8218L48.6387 95.0141C48.5001 95.345 48.4298 95.6906 48.4206 96.0474C48.415 96.4042 48.4742 96.7536 48.6091 97.0937C48.7404 97.4338 48.9493 97.7462 49.2284 98.0254C49.5076 98.3082 49.8699 98.5393 50.3099 98.726C50.7462 98.9053 51.1639 98.9959 51.5596 98.9959C51.9552 98.9959 52.3212 98.9219 52.6576 98.774C52.9922 98.6298 53.2843 98.4265 53.5302 98.1677C53.7779 97.9108 53.9702 97.615 54.1088 97.2822L54.1883 97.09C54.3325 96.7462 54.4065 96.3931 54.4138 96.0308C54.4194 95.6685 54.3528 95.3172 54.2179 94.9771C54.0792 94.6407 53.8703 94.3283 53.5912 94.0491Z" fill="#0C2B72"/>
<path d="M63.2651 96.1935C63.0155 95.9661 62.6846 95.8219 62.2668 95.7628L62.2058 95.7535C61.7991 95.6962 61.4424 95.7406 61.1429 95.8885C60.8415 96.0363 60.5938 96.284 60.4016 96.6297C60.3849 96.6612 60.3701 96.6944 60.3498 96.7258C60.3443 96.6907 60.3369 96.6556 60.3313 96.6205C60.2481 96.236 60.0836 95.931 59.8377 95.7018C59.5919 95.4725 59.2591 95.332 58.845 95.271L58.7877 95.2618C58.381 95.2045 58.0242 95.2489 57.7248 95.3967C57.4234 95.5446 57.1794 95.7923 56.989 96.138C56.928 96.2471 56.8762 96.3654 56.8282 96.4911L57.0186 95.1786L55.9297 95.0215L55.1588 100.39L56.5324 100.586L56.9853 97.4338C57.0371 97.0845 57.172 96.8201 57.3938 96.6408C57.6157 96.4615 57.8856 96.3931 58.1999 96.4393C58.5141 96.4837 58.7452 96.6186 58.8875 96.846C59.028 97.0734 59.0761 97.3525 59.028 97.6871L58.5696 100.878L59.9431 101.074L60.396 97.9219C60.4478 97.5725 60.5827 97.3081 60.8046 97.1288C61.0264 96.9495 61.2926 96.8811 61.6106 96.9273C61.9285 96.9717 62.1559 97.1067 62.2983 97.3359C62.4406 97.5614 62.4887 97.8424 62.4406 98.177L61.9822 101.368L63.3557 101.564L63.7957 98.5005C63.8733 97.9607 63.8659 97.4949 63.779 97.1104C63.6866 96.7277 63.5184 96.4227 63.2688 96.1953L63.2651 96.1935Z" fill="#0C2B72"/>
<path d="M68.665 93.7738L67.2548 93.9385L68.1 101.176L69.5102 101.012L68.665 93.7738Z" fill="#0C2B72"/>
<path d="M74.7673 94.7555C74.3366 94.4412 73.8116 94.3673 73.1886 94.5336L73.1313 94.5503C72.7135 94.663 72.39 94.8461 72.1589 95.103C71.9278 95.3599 71.7892 95.6834 71.7448 96.079C71.7282 96.2066 71.7263 96.3452 71.7319 96.4931L71.3825 95.1991L70.3232 95.4857L71.7356 100.721L73.074 100.358L72.2458 97.2824C72.1534 96.9423 72.1811 96.6428 72.329 96.3859C72.4769 96.1289 72.7135 95.9552 73.0407 95.8683C73.3624 95.7814 73.6415 95.8128 73.8781 95.9644C74.1147 96.116 74.2756 96.3489 74.3625 96.6706L75.1999 99.7854L76.5383 99.4231L75.7286 96.4247C75.516 95.6261 75.1962 95.0697 74.7655 94.7555H74.7673Z" fill="#0C2B72"/>
<path d="M80.7828 94.5039C80.3336 94.4004 79.803 94.4596 79.2003 94.674L78.7474 94.8348C78.4683 94.931 78.2501 94.9624 78.093 94.9365C77.9359 94.9069 77.8194 94.8145 77.7455 94.6611C77.6678 94.4966 77.6789 94.3339 77.775 94.1601C77.8712 93.9901 78.0505 93.8422 78.3148 93.7146C78.6106 93.5741 78.8639 93.5279 79.0765 93.5741C79.2891 93.6185 79.4425 93.7257 79.5349 93.8847L80.6626 93.3486C80.402 92.8476 80.0211 92.5519 79.522 92.4668C79.0247 92.38 78.472 92.4798 77.8712 92.7663C77.4867 92.9493 77.1742 93.1711 76.9302 93.4299C76.6899 93.6906 76.5383 93.9716 76.4773 94.2803C76.4163 94.589 76.4681 94.9125 76.6289 95.2471C76.8285 95.6667 77.1354 95.9347 77.5495 96.0456C77.9636 96.1584 78.4572 96.1122 79.0358 95.9144L79.4887 95.7536C79.8289 95.6279 80.0858 95.5835 80.2689 95.6149C80.4482 95.6464 80.5794 95.7425 80.6571 95.907C80.7477 96.0937 80.7273 96.2823 80.6016 96.4745C80.4759 96.6668 80.2615 96.835 79.9638 96.9792C79.6033 97.1529 79.3057 97.2065 79.0709 97.1492C78.8362 97.0919 78.6698 96.9829 78.5737 96.822L77.4478 97.3581C77.7085 97.8554 78.093 98.1548 78.6125 98.2565C79.1301 98.36 79.7272 98.2528 80.3983 97.933C80.8308 97.7278 81.1747 97.4801 81.4298 97.1973C81.6868 96.9145 81.8439 96.6095 81.9086 96.2897C81.9733 95.968 81.9271 95.6445 81.7736 95.321C81.5647 94.8774 81.2338 94.6075 80.7846 94.5058L80.7828 94.5039Z" fill="#0C2B72"/>
<path d="M85.1659 93.6497C84.9441 93.7976 84.7352 93.8512 84.5374 93.8142C84.3377 93.7754 84.1658 93.6442 84.0179 93.4261L82.6499 91.3853L84.0364 90.4517L83.4688 89.6069L82.0824 90.5386L81.232 89.2705L80.1561 89.9951L81.0065 91.2632L80.2873 91.7476L80.8549 92.5924L81.5703 92.1099L82.8865 94.0749C83.1786 94.5112 83.4799 94.8125 83.785 94.9807C84.09 95.1471 84.4135 95.1951 84.7536 95.1212C85.0938 95.0472 85.4728 94.8735 85.8869 94.5943L86.532 94.1599L85.8665 93.1746L85.164 93.6497H85.1659Z" fill="#0C2B72"/>
<path d="M83.9865 86.6069C83.7997 86.581 83.6019 86.6587 83.3949 86.8343C83.186 87.0099 83.0806 87.1948 83.0714 87.387C83.064 87.5756 83.1287 87.7567 83.2729 87.9231C83.4134 88.0895 83.5816 88.1856 83.7739 88.2115C83.9661 88.2373 84.1658 88.1597 84.3747 87.9841C84.5836 87.8066 84.6889 87.6236 84.6926 87.4314C84.6963 87.241 84.6261 87.0617 84.4837 86.8953C84.3395 86.7252 84.1732 86.6328 83.9865 86.6069Z" fill="#0C2B72"/>
<path d="M86.1346 88.6974L85.4635 87.9062L83.8293 89.3001L84.5004 90.0894L85.079 89.5995L87.9222 92.9343L88.9796 92.0359L86.1346 88.6974Z" fill="#0C2B72"/>
<path d="M91.198 88.2371C91.015 88.433 90.8264 88.5328 90.6194 88.5384C90.4179 88.5458 90.2182 88.4589 90.0259 88.2759L88.2346 86.5937L89.3771 85.3737L88.6321 84.6768L87.4896 85.8968L86.3749 84.8505L85.4894 85.797L86.6041 86.8433L86.0126 87.4755L86.7576 88.1724L87.3491 87.5439L89.0739 89.165C89.4584 89.5237 89.8189 89.7529 90.1517 89.8453C90.4863 89.9414 90.8135 89.9119 91.1277 89.7677C91.442 89.6198 91.7729 89.3665 92.1131 89.0005L92.6455 88.433L91.7785 87.6215L91.198 88.2371Z" fill="#0C2B72"/>
<path d="M91.1166 81.1887L93.775 82.9762C94.0671 83.1722 94.2445 83.4125 94.3018 83.699C94.3591 83.9818 94.2981 84.2572 94.1225 84.5216C93.9432 84.7878 93.7214 84.9412 93.4552 84.9874C93.189 85.0318 92.9154 84.9615 92.6399 84.7748L89.9298 82.954L89.1552 84.1075L91.7655 85.8636C92.4403 86.3165 93.0429 86.5143 93.5753 86.4607C94.1077 86.4071 94.5514 86.1206 94.9008 85.6011L94.9322 85.5494C95.167 85.2019 95.2816 84.8599 95.2853 84.5216C95.2853 84.1852 95.1725 83.8561 94.9489 83.5363C94.8842 83.4457 94.8139 83.3589 94.7344 83.2701L95.7844 83.9763L96.3982 83.0649L91.8912 80.0352L91.1185 81.1905L91.1166 81.1887Z" fill="#0C2B72"/>
<path d="M97.3391 78.5712C97.2264 78.8115 97.0785 78.9686 96.8862 79.0407C96.6977 79.1109 96.4814 79.0925 96.2374 78.9797L94.0061 77.9501L94.7067 76.4324L93.7824 76.0054L93.0854 77.523L91.699 76.8816L91.1573 78.0591L92.5438 78.7006L92.1815 79.4862L93.1058 79.9095L93.4663 79.1257L95.6144 80.1184C96.0932 80.3365 96.5073 80.4401 96.853 80.4234C97.2005 80.4068 97.5018 80.2792 97.7551 80.0408C98.0084 79.8023 98.2394 79.4566 98.4446 79L98.7681 78.2939L97.6885 77.7966L97.3391 78.5693V78.5712Z" fill="#0C2B72"/>
<path d="M95.6735 73.9943C95.5959 73.7503 95.5996 73.4841 95.6791 73.1883C95.7623 72.8926 95.8935 72.6652 96.0765 72.5081C96.2595 72.3473 96.4851 72.2548 96.7476 72.2215C96.8992 72.2049 97.0581 72.2086 97.2319 72.2308L96.4999 74.8539C96.3594 74.7855 96.2337 74.7097 96.1246 74.6228C95.8991 74.4472 95.7493 74.2383 95.6717 73.9943H95.6735ZM99.8847 72.1642C99.6758 71.8722 99.4041 71.6356 99.0658 71.4581L98.7219 72.6874C98.8994 72.8001 99.0232 72.9758 99.0972 73.2179C99.1711 73.4582 99.1619 73.7448 99.0713 74.072C98.9789 74.3991 98.8328 74.6468 98.6276 74.8206C98.4261 74.9907 98.1821 75.0942 97.8993 75.1256C97.7126 75.1478 97.5148 75.1386 97.3077 75.1071L98.4058 71.1808L97.9233 71.0459C97.4611 70.9183 97.0045 70.8924 96.5498 70.9719C96.0969 71.0514 95.692 71.2474 95.3389 71.5616C94.9858 71.874 94.7289 72.3121 94.5717 72.8778C94.4534 73.3085 94.4201 73.7059 94.4812 74.0756C94.5422 74.4454 94.6679 74.7763 94.8564 75.0683C95.0487 75.3604 95.289 75.6081 95.5811 75.8096C95.8732 76.0111 96.1948 76.1627 96.5368 76.2588L96.7198 76.3106C97.0544 76.403 97.3964 76.4381 97.7477 76.4159C98.1008 76.3937 98.4354 76.3069 98.7589 76.159C99.0806 76.0111 99.3652 75.7893 99.613 75.4953C99.8607 75.2033 100.046 74.8299 100.171 74.3807C100.29 73.95 100.325 73.5451 100.271 73.1699C100.219 72.7946 100.088 72.4563 99.8792 72.1642H99.8847Z" fill="#0C2B72"/>
<path d="M31.2948 66.1043C32.1729 66.1043 32.8846 65.3926 32.8846 64.5146C32.8846 63.6366 32.1729 62.9248 31.2948 62.9248C30.4168 62.9248 29.705 63.6366 29.705 64.5146C29.705 65.3926 30.4168 66.1043 31.2948 66.1043Z" fill="#E88542"/>
<path d="M97.6719 66.1043C98.5499 66.1043 99.2617 65.3926 99.2617 64.5146C99.2617 63.6366 98.5499 62.9248 97.6719 62.9248C96.7939 62.9248 96.0821 63.6366 96.0821 64.5146C96.0821 65.3926 96.7939 66.1043 97.6719 66.1043Z" fill="#E88542"/>
<path d="M64.5 24.3772C59.0835 24.3772 53.8297 25.4401 48.8809 27.5327C44.104 29.555 39.8115 32.448 36.1272 36.1303C32.4447 39.8126 29.5516 44.1049 27.5292 48.8816C25.4365 53.832 24.3735 59.0874 24.3735 64.5C24.3735 69.9126 25.4365 75.1717 27.5292 80.1184C29.5516 84.8951 32.4447 89.1874 36.1272 92.8734C39.8133 96.5594 44.1022 99.4506 48.8809 101.471C53.8315 103.564 59.0872 104.627 64.5 104.627C69.9128 104.627 75.1703 103.564 80.1191 101.471C84.896 99.4487 89.1885 96.5557 92.8728 92.8734C96.559 89.1874 99.4503 84.8988 101.471 80.1184C103.563 75.168 104.626 69.9126 104.626 64.5C104.626 59.0874 103.563 53.8302 101.471 48.8816C99.4484 44.1049 96.5553 39.8126 92.8728 36.1284C89.1867 32.4424 84.8978 29.5513 80.1191 27.5308C75.1722 25.4382 69.9165 24.379 64.5 24.379V24.3772ZM64.5 106C58.8986 106 53.4618 104.902 48.3448 102.739C43.4015 100.65 38.9648 97.6575 35.1529 93.8476C31.3447 90.0378 28.3536 85.5975 26.261 80.6563C24.0981 75.5359 23 70.0993 23 64.4982C23 58.897 24.0981 53.4623 26.261 48.3437C28.3499 43.4006 31.3429 38.9641 35.1529 35.1524C38.963 31.3444 43.4034 28.3534 48.3448 26.2608C53.4655 24.098 58.9005 23 64.5 23C70.0995 23 75.5382 24.098 80.6552 26.2608C85.5985 28.3497 90.0352 31.3425 93.8471 35.1524C97.6571 38.9622 100.65 43.3988 102.739 48.3437C104.904 53.4641 106 58.8989 106 64.4982C106 70.0974 104.902 75.5359 102.739 80.6527C100.65 85.5957 97.6571 90.0322 93.8471 93.8439C90.037 97.6538 85.6003 100.647 80.6552 102.735C75.5382 104.902 70.1032 106 64.5 106Z" fill="#0C2B72"/>
<path d="M82.3375 82.335C78.3444 86.3279 73.2459 88.816 67.7333 89.5166V71.619H61.2704V89.5166C55.7578 88.816 50.6593 86.3297 46.6662 82.335C41.9023 77.5713 39.2791 71.2382 39.2791 64.502C39.2791 57.7659 41.9023 51.4328 46.6662 46.6691C51.4302 41.9053 57.7636 39.2822 64.5 39.2822C71.2364 39.2822 77.5698 41.9053 82.3338 46.6691C87.0977 51.4328 89.7209 57.7678 89.7209 64.502C89.7209 71.2363 87.1014 77.5713 82.3375 82.335ZM83.3099 45.693C78.2853 40.6687 71.608 37.9014 64.5037 37.9014C57.3994 37.9014 50.7184 40.6687 45.6975 45.693C40.6766 50.7174 37.9055 57.3944 37.9055 64.4983C37.9055 71.6023 40.6729 78.283 45.6975 83.3037C50.7221 88.328 57.3994 91.0953 64.5037 91.0953C71.608 91.0953 78.289 88.328 83.3099 83.3037C88.3344 78.2793 91.1019 71.6023 91.1019 64.4983C91.0982 57.3944 88.3344 50.7174 83.3099 45.693Z" fill="#0C2B72"/>
</g>
<defs>
<filter id="filter0_d_456_8946" x="0" y="0" width="129" height="129" filterUnits="userSpaceOnUse" color-interpolation-filters="sRGB">
<feFlood flood-opacity="0" result="BackgroundImageFix"/>
<feColorMatrix in="SourceAlpha" type="matrix" values="0 0 0 0 0 0 0 0 0 0 0 0 0 0 0 0 0 0 127 0" result="hardAlpha"/>
<feOffset/>
<feGaussianBlur stdDeviation="6"/>
<feComposite in2="hardAlpha" operator="out"/>
<feColorMatrix type="matrix" values="0 0 0 0 0 0 0 0 0 0 0 0 0 0 0 0 0 0 0.08 0"/>
<feBlend mode="normal" in2="BackgroundImageFix" result="effect1_dropShadow_456_8946"/>
<feBlend mode="normal" in="SourceGraphic" in2="effect1_dropShadow_456_8946" result="shape"/>
</filter>
<clipPath id="clip0_456_8946">
<rect width="83" height="83" fill="white" transform="translate(23 23)"/>
</clipPath>
</defs>
</svg>
